<?xml version="1.0" encoding="UTF-8"?>
<svg id="Lettermark" xmlns="http://www.w3.org/2000/svg" viewBox="0 0 232.92 232.93">
  <defs>
    <style>
      .cls-1 {
        fill: #f26631;
      }
    </style>
  </defs>
  <g id="Red">
    <path id="A_Counter" data-name="A Counter" class="cls-1" d="M32.01,151.55c5.36,1.06,10.49,.98,15.34-.24,4.87-1.21,9.5-2.92,13.86-5.13l5-25.3c-4.73-.66-10.31-1.33-16.75-2.04-6.44-.71-11.59-.9-15.49-.58-4.64,.38-8.58,1.62-11.81,3.71-3.25,2.11-5.31,5.47-6.22,10.09-1.02,5.2-.23,9.43,2.4,12.7,2.63,3.25,7.19,5.51,13.66,6.78"/>
    <path id="Main" class="cls-1" d="M138.64,2.15C75.49-10.1,14.39,31.16,2.15,94.29,.04,105.12-.48,115.91,.42,126.41l.36,.03c1.48-5.18,3.76-9.27,6.87-12.29,3.8-3.7,8.69-6.21,14.67-7.57,6.03-1.35,13-1.71,20.93-1.04,7.92,.66,16.4,1.65,25.39,2.95l.46-2.36c.69-3.47,.65-6.46-.11-8.99-.78-2.52-2.19-4.66-4.22-6.42-1.91-1.68-4.37-3.03-7.32-4.05-2.95-1.04-6.09-1.88-9.42-2.53-3.99-.79-8.57-1.14-13.75-1.06-5.16,.09-10.56,.62-16.2,1.59l-.83-.15,3.07-15.58c3.15-.22,7.64-.27,13.5-.12,5.83,.11,11.49,.71,16.99,1.81,6.41,1.25,11.87,2.89,16.42,4.87,4.54,1.99,8.29,4.6,11.27,7.85,2.94,3.17,4.91,6.92,5.92,11.23,1.01,4.33,.94,9.42-.21,15.28l-12.15,61.77-15.23-3,1.9-9.7c-1.55,.65-3.62,1.59-6.26,2.8-2.64,1.18-5.12,2.07-7.5,2.62-2.8,.75-5.92,1.22-9.41,1.41-3.48,.19-7.45-.15-11.89-1.03-6.63-1.3-12.08-4.23-16.37-8.76l-.3,.18c13.52,37.18,45.65,66.54,87.31,74.64,39.49,7.65,78.16-5.62,104.6-32.06l9.63-52.04c.81-4.2,1.33-8.18,1.56-11.95,.22-3.77-.12-6.82-1.02-9.15-.93-2.54-2.57-4.63-4.91-6.23-2.36-1.62-5.58-2.84-9.67-3.62-4.2-.82-8.8-.63-13.78,.55-5,1.19-9.9,2.97-14.73,5.36l-13.21,68.14-15.38-2.99,24.66-127.11,15.37,2.98-8.92,45.99c5.57-3.03,11.14-5.17,16.71-6.42,5.56-1.24,11.06-1.33,16.46-.28,9.89,1.91,16.85,6.37,20.87,13.3,4.04,6.95,4.98,15.99,2.81,27.17l-5.04,26,.34,.12c4.61-9.24,8.07-19.26,10.13-29.89C243.01,75.5,201.76,14.4,138.64,2.15m13.77,71.27l-.83-.16c-1.57-.84-3.67-1.76-6.32-2.8-2.59-1.05-4.93-1.79-6.98-2.19-6.58-1.28-11.66-.72-15.17,1.61-3.52,2.34-6.03,7.31-7.51,14.9l-.61,3.11,27.64,5.37-2.5,12.9-27.16-5.28-15.18,78.23-15.31-2.98,17.67-91.11,.59-3.02c2.1-10.83,6.38-18.59,12.89-23.34,6.52-4.76,14.85-6.14,25.01-4.17,3.42,.67,6.49,1.44,9.15,2.28,2.67,.88,5.14,1.73,7.34,2.64l-2.72,14.02Z"/>
  </g>
</svg>